<mxfile host="app.diagrams.net" modified="2024-04-25T09:46:03.477Z" agent="Mozilla/5.0 (Windows NT 10.0; Win64; x64) AppleWebKit/537.36 (KHTML, like Gecko) Chrome/124.0.0.0 Safari/537.36" version="24.2.8" etag="WBLlfr4_shBxzwYC1a9A" type="github">
  <diagram name="Page-1" id="IU63tioq3G8Mb_ZaTKr_">
    <mxGraphModel>
      <root>
        <mxCell id="0" />
        <mxCell id="1" parent="0" />
      </root>
    </mxGraphModel>
  </diagram>
</mxfile>
